<svg width="48" height="48" viewBox="0 0 48 48" fill="none" xmlns="http://www.w3.org/2000/svg">
<path d="M7.5 42.75H1.5C1.086 42.75 0.75 42.414 0.75 42V12C0.75 11.586 1.086 11.25 1.5 11.25H7.5C7.914 11.25 8.25 11.586 8.25 12V42C8.25 42.414 7.914 42.75 7.5 42.75ZM2.25 41.25H6.75V12.75H2.25V41.25Z" fill="#4D4D4D"/>
<path d="M7.5 15.75H1.5V17.25H7.5V15.75Z" fill="#4D4D4D"/>
<path d="M4.5 12.75C2.43225 12.75 0.75 11.0677 0.75 9C0.75 6.93225 2.43225 5.25 4.5 5.25C6.56775 5.25 8.25 6.93225 8.25 9C8.25 11.0677 6.56775 12.75 4.5 12.75ZM4.5 6.75C3.2595 6.75 2.25 7.7595 2.25 9C2.25 10.2405 3.2595 11.25 4.5 11.25C5.7405 11.25 6.75 10.2405 6.75 9C6.75 7.7595 5.7405 6.75 4.5 6.75ZM46.5 42.75H40.5C40.086 42.75 39.75 42.414 39.75 42V27.75H41.25V41.25H45.75V12.75H41.25V24.75H39.75V12C39.75 11.586 40.086 11.25 40.5 11.25H46.5C46.914 11.25 47.25 11.586 47.25 12V42C47.25 42.414 46.914 42.75 46.5 42.75Z" fill="#4D4D4D"/>
<path d="M46.5 15.75H40.5V17.25H46.5V15.75Z" fill="#4D4D4D"/>
<path d="M43.5 12.75C41.4323 12.75 39.75 11.0677 39.75 9C39.75 6.93225 41.4323 5.25 43.5 5.25C45.5677 5.25 47.25 6.93225 47.25 9C47.25 11.0677 45.5677 12.75 43.5 12.75ZM43.5 6.75C42.2595 6.75 41.25 7.7595 41.25 9C41.25 10.2405 42.2595 11.25 43.5 11.25C44.7405 11.25 45.75 10.2405 45.75 9C45.75 7.7595 44.7405 6.75 43.5 6.75ZM37.5 40.5H10.5C10.086 40.5 9.75 40.164 9.75 39.75V15.75C9.75 15.336 10.086 15 10.5 15H15.4455C17.4937 13.0627 20.1615 12 22.992 12H25.0072C27.8377 12 30.5062 13.0627 32.5537 15H37.5C37.914 15 38.25 15.336 38.25 15.75V24.75H36.75V16.5H32.25C32.0513 16.5 31.86 16.4213 31.7197 16.2803C29.9265 14.487 27.543 13.5 25.0072 13.5H22.992C20.4563 13.5 18.0727 14.487 16.2795 16.2803C16.14 16.4213 15.9488 16.5 15.75 16.5H11.25V39H36.75V27.75H38.25V39.75C38.25 40.164 37.914 40.5 37.5 40.5Z" fill="#4D4D4D"/>
<path d="M42 28.5H37.5C36.2595 28.5 35.25 27.4905 35.25 26.25C35.25 25.0095 36.2595 24 37.5 24H42C43.2405 24 44.25 25.0095 44.25 26.25C44.25 27.4905 43.2405 28.5 42 28.5ZM37.5 25.5C37.0868 25.5 36.75 25.8368 36.75 26.25C36.75 26.6632 37.0868 27 37.5 27H42C42.4132 27 42.75 26.6632 42.75 26.25C42.75 25.8368 42.4132 25.5 42 25.5H37.5Z" fill="#4D4D4D"/>
<path d="M15.75 15.75H14.25V39.75H15.75V15.75Z" fill="#4D4D4D"/>
<path d="M20.25 13.3643H18.75V39.75H20.25V13.3643Z" fill="#4D4D4D"/>
<path d="M24.75 12.75H23.25V39.75H24.75V12.75Z" fill="#4D4D4D"/>
<path d="M29.25 13.3643H27.75V39.75H29.25V13.3643Z" fill="#4D4D4D"/>
<path d="M33.75 15.75H32.25V39.75H33.75V15.75Z" fill="#4D4D4D"/>
<path d="M10.5 18H7.5V19.5H10.5V18Z" fill="#4D4D4D"/>
<path d="M10.5 21H7.5V22.5H10.5V21Z" fill="#4D4D4D"/>
<path d="M10.5 36H7.5V37.5H10.5V36Z" fill="#4D4D4D"/>
<path d="M10.5 33H7.5V34.5H10.5V33Z" fill="#4D4D4D"/>
</svg>
