<svg width="44" height="44" viewBox="0 0 44 44" fill="none" xmlns="http://www.w3.org/2000/svg">
<g clip-path="url(#clip0_2089_6)">
<path fill-rule="evenodd" clip-rule="evenodd" d="M12.8389 7.51844L11.1105 5.14107C10.7917 4.70246 10.3118 4.40829 9.77632 4.32314C9.2408 4.23798 8.69337 4.36879 8.2542 4.68686L8.25374 4.68732C7.82565 4.99736 7.53422 5.4611 7.44057 5.98131C7.34691 6.50152 7.45832 7.03778 7.75141 7.47765L14.449 17.5262C14.5511 17.6757 14.708 17.7789 14.8857 17.8134C15.0634 17.8479 15.2476 17.811 15.3982 17.7106C15.5488 17.6101 15.6538 17.4544 15.6902 17.2771C15.7267 17.0997 15.6918 16.9152 15.593 16.7635L8.89587 6.71499C8.79971 6.57096 8.76313 6.39527 8.79381 6.22484C8.8245 6.05441 8.92006 5.90251 9.06041 5.80107L9.06087 5.80061C9.13219 5.74884 9.21301 5.71162 9.29871 5.69109C9.38442 5.67055 9.47333 5.6671 9.56037 5.68094C9.64741 5.69477 9.73087 5.72561 9.80599 5.77171C9.8811 5.8178 9.9464 5.87824 9.99816 5.94957L11.7265 8.32694C11.8337 8.47445 11.9952 8.57333 12.1753 8.60183C12.3554 8.63032 12.5395 8.5861 12.687 8.47888C12.8345 8.37167 12.9334 8.21025 12.9619 8.03013C12.9903 7.85001 12.9461 7.66595 12.8389 7.51844ZM17.0643 12.7797L14.9844 10.4316C14.8819 10.316 14.785 10.1955 14.6942 10.0704L14.5893 9.92607C14.4821 9.77856 14.3206 9.67968 14.1405 9.65119C13.9604 9.62269 13.7764 9.66692 13.6288 9.77413C13.4813 9.88135 13.3825 10.0428 13.354 10.2229C13.3255 10.403 13.3697 10.5871 13.4769 10.7346L13.5819 10.8789C13.6987 11.0398 13.8234 11.1947 13.9554 11.3432L16.0353 13.6913C16.1574 13.8234 16.3263 13.9025 16.506 13.9115C16.6856 13.9205 16.8616 13.8587 16.9963 13.7394C17.1309 13.6201 17.2134 13.4528 17.2262 13.2734C17.2389 13.094 17.1808 12.9167 17.0643 12.7797ZM32.8493 9.73494L27.8516 16.7456C27.7526 16.8943 27.7153 17.0757 27.7476 17.2514C27.7799 17.4271 27.8794 17.5833 28.0248 17.6871C28.1703 17.7908 28.3504 17.8339 28.527 17.8072C28.7037 17.7805 28.863 17.6861 28.9713 17.544L33.969 10.5334C34.0214 10.4598 34.0588 10.3767 34.0791 10.2887C34.0994 10.2007 34.1022 10.1096 34.0873 10.0206C34.0724 9.9315 34.0401 9.84625 33.9922 9.76968C33.9443 9.69312 33.8819 9.62672 33.8083 9.5743C33.7348 9.52187 33.6517 9.48444 33.5637 9.46414C33.4757 9.44385 33.3846 9.44108 33.2955 9.45599C33.2065 9.47091 33.1212 9.50322 33.0447 9.55109C32.9681 9.59895 32.9017 9.66142 32.8493 9.73494ZM27.1815 14.0222L29.6895 11.3469C29.8215 11.2062 29.9467 11.0595 30.0645 10.9074L33.7806 6.11732C33.8871 5.97989 34.0429 5.8893 34.2151 5.86475C34.3872 5.8402 34.5621 5.88361 34.7028 5.98578L34.7042 5.98624C35.0025 6.20257 35.0708 6.61919 34.8568 6.9194L34.5465 7.35482C34.4408 7.50334 34.3984 7.68774 34.4285 7.86752C34.4587 8.0473 34.559 8.20776 34.7074 8.31365C35.0163 8.53365 35.4457 8.46169 35.6662 8.15278L35.9765 7.71736C36.2899 7.27772 36.4168 6.73204 36.3295 6.19924C36.2423 5.66643 35.948 5.18971 35.5108 4.87294L35.5099 4.87203C35.08 4.56068 34.5459 4.42865 34.0204 4.50383C33.4949 4.579 33.0193 4.8555 32.6939 5.2749L28.9782 10.0645C28.8865 10.1832 28.7889 10.2969 28.6867 10.4064L26.1782 13.0817C26.0536 13.2148 25.9869 13.3919 25.9928 13.5742C25.9986 13.7565 26.0765 13.9289 26.2094 14.0538C26.3426 14.1784 26.5198 14.245 26.702 14.2391C26.8843 14.2331 27.0567 14.1551 27.1815 14.0222Z" fill="#4D4D4D"/>
<path fill-rule="evenodd" clip-rule="evenodd" d="M26.1487 25.1643C26.2502 21.1866 26.7601 17.2298 27.6704 13.3563C27.7013 13.2246 27.6926 13.0867 27.6454 12.9599C27.5983 12.8331 27.5148 12.7231 27.4054 12.6435C27.296 12.5639 27.1655 12.5184 27.0304 12.5127C26.8952 12.5069 26.7614 12.5411 26.6456 12.611C25.7541 13.1496 24.8517 13.5447 23.9428 13.7903C23.769 13.8398 23.6216 13.9557 23.5326 14.113C23.4436 14.2703 23.4202 14.4563 23.4673 14.6308C23.5144 14.8053 23.6283 14.9542 23.7844 15.0453C23.9404 15.1364 24.1261 15.1624 24.3012 15.1177C24.8861 14.9585 25.4571 14.752 26.0085 14.5003C25.2784 17.9989 24.8653 21.5562 24.7742 25.129C24.77 25.311 24.8382 25.4872 24.9637 25.619C25.0893 25.7507 25.2619 25.8274 25.4439 25.832C25.6258 25.8367 25.8022 25.7691 25.9343 25.6439C26.0665 25.5187 26.1436 25.3463 26.1487 25.1643ZM19.5446 13.7908C18.6568 13.5479 17.7745 13.1565 16.9037 12.6152C16.7893 12.5441 16.6565 12.5082 16.5218 12.512C16.3872 12.5157 16.2566 12.559 16.1463 12.6363C16.036 12.7136 15.9509 12.8217 15.9015 12.947C15.852 13.0723 15.8405 13.2094 15.8683 13.3412C16.6727 17.1531 17.0142 20.9651 17.0297 24.777C17.0369 24.955 17.1129 25.1233 17.2416 25.2465C17.3703 25.3696 17.5418 25.438 17.7199 25.4373C17.898 25.4366 18.0689 25.3668 18.1967 25.2426C18.3244 25.1185 18.399 24.9496 18.4047 24.7715C18.391 21.3469 18.1187 17.9222 17.4963 14.4975C18.0399 14.7505 18.6036 14.9578 19.1816 15.1172C19.3575 15.1653 19.5453 15.1416 19.7037 15.0513C19.8622 14.961 19.9782 14.8114 20.0263 14.6355C20.0745 14.4596 20.0508 14.2718 19.9604 14.1134C19.8701 13.955 19.7205 13.8389 19.5446 13.7908Z" fill="#4D4D4D"/>
<path fill-rule="evenodd" clip-rule="evenodd" d="M21.6868 10.2695C20.0349 10.2695 18.6219 11.8392 18.6219 13.8477C18.6219 15.8561 20.0349 17.4263 21.6868 17.4263C23.3381 17.4263 24.7512 15.8561 24.7512 13.8477C24.7512 11.8392 23.3381 10.2695 21.6868 10.2695ZM21.6868 11.6445C22.6598 11.6445 23.3762 12.6642 23.3762 13.8477C23.3762 15.0315 22.6598 16.0513 21.6868 16.0513C20.7133 16.0513 19.9969 15.0315 19.9969 13.8477C19.9969 12.6642 20.7133 11.6445 21.6868 11.6445ZM0.916016 8.69966H1.83268C2.01502 8.69966 2.18989 8.62723 2.31882 8.4983C2.44775 8.36937 2.52018 8.1945 2.52018 8.01216C2.52018 7.82983 2.44775 7.65496 2.31882 7.52603C2.18989 7.3971 2.01502 7.32466 1.83268 7.32466H0.916016C0.733679 7.32466 0.558811 7.3971 0.42988 7.52603C0.300948 7.65496 0.228516 7.82983 0.228516 8.01216C0.228516 8.1945 0.300948 8.36937 0.42988 8.4983C0.558811 8.62723 0.733679 8.69966 0.916016 8.69966ZM37.5611 3.91329V14.1671C37.5611 14.438 37.6144 14.7062 37.718 14.9565C37.8216 15.2067 37.9736 15.4341 38.1651 15.6257C38.3566 15.8172 38.584 15.9691 38.8343 16.0727C39.0845 16.1764 39.3528 16.2297 39.6236 16.2296H40.791C41.338 16.2296 41.8626 16.0123 42.2494 15.6255C42.6362 15.2387 42.8535 14.7141 42.8535 14.1671V3.45496C42.8535 2.90795 42.6362 2.38334 42.2494 1.99655C41.8626 1.60975 41.338 1.39246 40.791 1.39246H39.6236C39.4413 1.39246 39.2664 1.46489 39.1375 1.59382C39.0086 1.72275 38.9361 1.89762 38.9361 2.07996C38.9361 2.26229 39.0086 2.43716 39.1375 2.56609C39.2664 2.69502 39.4413 2.76746 39.6236 2.76746H40.791C40.9732 2.76782 41.1479 2.84037 41.2768 2.96922C41.4056 3.09807 41.4782 3.27273 41.4785 3.45496V14.1671C41.4785 14.3495 41.4061 14.5243 41.2772 14.6533C41.1482 14.7822 40.9734 14.8546 40.791 14.8546H39.6236C39.4413 14.8546 39.2664 14.7822 39.1375 14.6533C39.0086 14.5243 38.9361 14.3495 38.9361 14.1671V3.91329C38.9296 3.7353 38.8544 3.56676 38.7261 3.44314C38.5979 3.31952 38.4268 3.25044 38.2486 3.25044C38.0705 3.25044 37.8994 3.31952 37.7711 3.44314C37.6429 3.56676 37.5676 3.7353 37.5611 3.91329Z" fill="#4D4D4D"/>
<path fill-rule="evenodd" clip-rule="evenodd" d="M6.43886 3.45496C6.43886 2.90795 6.22156 2.38334 5.83477 1.99655C5.44797 1.60975 4.92337 1.39246 4.37636 1.39246H3.20898C2.66198 1.39246 2.13737 1.60975 1.75058 1.99655C1.36378 2.38334 1.14648 2.90795 1.14648 3.45496V14.1671C1.14642 14.438 1.19973 14.7062 1.30336 14.9565C1.40699 15.2067 1.55891 15.4341 1.75044 15.6257C1.94198 15.8172 2.16937 15.9691 2.41963 16.0727C2.66989 16.1764 2.93812 16.2297 3.20898 16.2296H4.37636C4.64723 16.2297 4.91545 16.1764 5.16572 16.0727C5.41598 15.9691 5.64337 15.8172 5.8349 15.6257C6.02643 15.4341 6.17835 15.2067 6.28198 14.9565C6.38561 14.7062 6.43892 14.438 6.43886 14.1671V3.45496ZM5.06386 3.45496V14.1671C5.06386 14.3495 4.99143 14.5243 4.8625 14.6533C4.73356 14.7822 4.5587 14.8546 4.37636 14.8546H3.20898C3.02676 14.8543 2.8521 14.7817 2.72325 14.6529C2.5944 14.524 2.52185 14.3493 2.52148 14.1671V3.45496C2.52185 3.27273 2.5944 3.09807 2.72325 2.96922C2.8521 2.84037 3.02676 2.76782 3.20898 2.76746H4.37636C4.5587 2.76746 4.73356 2.83989 4.8625 2.96882C4.99143 3.09775 5.06386 3.27262 5.06386 3.45496ZM29.0544 29.458C28.0846 30.075 27.1399 30.7519 26.298 31.6301C25.9252 32.019 25.46 32.3071 24.9458 32.4675C24.4316 32.628 23.8851 32.6556 23.3573 32.5477L23.3559 32.5472C22.5401 32.3822 21.6995 32.3822 20.8837 32.5477C20.3558 32.6558 19.8091 32.6283 19.2947 32.4678C18.7803 32.3074 18.3149 32.0192 17.9421 31.6301C17.7987 31.4809 17.6512 31.3357 17.4998 31.1947C17.4337 31.1332 17.3561 31.0853 17.2715 31.0538C17.1869 31.0223 17.0969 31.0078 17.0067 31.0111C16.9164 31.0143 16.8278 31.0354 16.7456 31.0729C16.6635 31.1105 16.5896 31.1638 16.5282 31.23C16.4667 31.2961 16.4188 31.3736 16.3873 31.4583C16.3558 31.5429 16.3413 31.6329 16.3446 31.7231C16.3478 31.8133 16.3689 31.902 16.4064 31.9841C16.444 32.0662 16.4973 32.1401 16.5634 32.2016C16.6945 32.3235 16.8233 32.45 16.9494 32.5816C17.4827 33.138 18.1483 33.5502 18.884 33.7799C19.6198 34.0096 20.4017 34.0492 21.1569 33.8952C21.7925 33.7662 22.4475 33.7661 23.0832 33.8947C23.8383 34.0491 24.6202 34.0097 25.3559 33.78C26.0916 33.5504 26.7571 33.1381 27.2903 32.5816C28.0534 31.7859 28.9132 31.1772 29.7923 30.6185C29.94 30.518 30.0428 30.3638 30.0789 30.1888C30.115 30.0138 30.0816 29.8315 29.9857 29.6807C29.8898 29.5299 29.739 29.4223 29.5651 29.3808C29.3913 29.3392 29.2081 29.3669 29.0544 29.458ZM24.4372 26.3693C26.9067 25.1671 29.3757 24.354 31.8447 23.8852C32.0239 23.8512 32.1822 23.7474 32.2849 23.5967C32.3876 23.446 32.4262 23.2607 32.3922 23.0815C32.3582 22.9023 32.2545 22.744 32.1038 22.6413C31.953 22.5386 31.7677 22.5 31.5885 22.534C29.004 23.0249 26.4199 23.8751 23.8354 25.1327C23.6772 25.2159 23.5576 25.3574 23.5019 25.5273C23.4462 25.6971 23.4588 25.882 23.537 26.0427C23.6152 26.2034 23.7529 26.3273 23.9209 26.3883C24.0889 26.4493 24.2741 26.4425 24.4372 26.3693ZM12.3825 23.8824C14.5596 24.3371 16.7362 25.0502 18.9133 26.01C19.0798 26.0814 19.2678 26.0843 19.4363 26.0179C19.6049 25.9515 19.7404 25.8213 19.8135 25.6555C19.8866 25.4897 19.8913 25.3018 19.8265 25.1326C19.7618 24.9634 19.6329 24.8266 19.4679 24.7519C17.2001 23.7518 14.9318 23.0097 12.6635 22.5367C12.4867 22.5038 12.3041 22.5414 12.1548 22.6414C12.0054 22.7415 11.9012 22.8961 11.8644 23.0721C11.8277 23.2481 11.8614 23.4314 11.9582 23.5829C12.055 23.7344 12.2074 23.8419 12.3825 23.8824Z" fill="#4D4D4D"/>
<path fill-rule="evenodd" clip-rule="evenodd" d="M15.4901 38.9162V28.2544C15.4901 28.0721 15.4177 27.8972 15.2888 27.7683C15.1598 27.6393 14.985 27.5669 14.8026 27.5669C14.6203 27.5669 14.4454 27.6393 14.3165 27.7683C14.1876 27.8972 14.1151 28.0721 14.1151 28.2544V38.9162C14.1151 39.0985 14.1876 39.2734 14.3165 39.4023C14.4454 39.5312 14.6203 39.6037 14.8026 39.6037C14.985 39.6037 15.1598 39.5312 15.2888 39.4023C15.4177 39.2734 15.4901 39.0985 15.4901 38.9162ZM15.4901 25.7423C15.49 24.887 15.1502 24.0669 14.5455 23.4621C13.9407 22.8574 13.1205 22.5176 12.2653 22.5175H12.2635C11.8122 22.5174 11.366 22.6119 10.9535 22.7949C10.541 22.9778 10.1714 23.2452 9.8686 23.5797C9.56576 23.9142 9.33638 24.3085 9.19525 24.7371C9.05411 25.1657 9.00435 25.6192 9.04918 26.0682L10.3032 38.6471C10.323 38.8271 10.4131 38.992 10.5539 39.106C10.6946 39.22 10.8746 39.2738 11.0548 39.2558C11.235 39.2378 11.4009 39.1495 11.5163 39.0099C11.6317 38.8704 11.6874 38.6909 11.6713 38.5105L10.4173 25.9316C10.3916 25.6737 10.4203 25.4133 10.5014 25.1672C10.5825 24.9211 10.7142 24.6947 10.8881 24.5026C11.0621 24.3105 11.2743 24.1569 11.5112 24.0518C11.7481 23.9468 12.0043 23.8925 12.2635 23.8925H12.2653C12.7559 23.8926 13.2263 24.0875 13.5732 24.4344C13.9201 24.7813 14.115 25.2517 14.1151 25.7423C14.1151 25.9246 14.1876 26.0995 14.3165 26.2284C14.4454 26.3574 14.6203 26.4298 14.8026 26.4298C14.985 26.4298 15.1598 26.3574 15.2888 26.2284C15.4177 26.0995 15.4901 25.9246 15.4901 25.7423ZM30.0881 39.3181V25.7414C30.0881 25.251 30.2828 24.7807 30.6296 24.434C30.9763 24.0873 31.4466 23.8925 31.937 23.8925H31.9383C32.1976 23.8926 32.454 23.947 32.6909 24.0522C32.9279 24.1574 33.1402 24.3111 33.3142 24.5033C33.4882 24.6955 33.62 24.922 33.7011 25.1682C33.7823 25.4145 33.811 25.675 33.7854 25.933L32.5388 38.4409C32.5226 38.6213 32.5783 38.8007 32.6938 38.9403C32.8092 39.0798 32.975 39.1682 33.1552 39.1862C33.3354 39.2041 33.5155 39.1503 33.6562 39.0363C33.7969 38.9224 33.887 38.7575 33.9069 38.5775L35.1535 26.0691C35.1982 25.62 35.1482 25.1665 35.007 24.7379C34.8657 24.3093 34.6362 23.915 34.3334 23.5804C34.0305 23.2459 33.6609 22.9784 33.2484 22.7954C32.8359 22.6123 32.3896 22.5176 31.9383 22.5175H31.937C31.0819 22.5175 30.2619 22.8571 29.6573 23.4617C29.0527 24.0663 28.7131 24.8863 28.7131 25.7414V39.3181C28.7131 39.5005 28.7855 39.6753 28.9144 39.8043C29.0433 39.9332 29.2182 40.0056 29.4006 40.0056C29.5829 40.0056 29.7578 39.9332 29.8867 39.8043C30.0156 39.6753 30.0881 39.5005 30.0881 39.3181Z" fill="#4D4D4D"/>
<path fill-rule="evenodd" clip-rule="evenodd" d="M16.2704 41.3169C16.2704 40.339 15.8819 39.4011 15.1904 38.7096C14.4989 38.0181 13.5611 37.6296 12.5831 37.6296H12.2146C11.2367 37.6296 10.2988 38.0181 9.60733 38.7096C8.91582 39.4011 8.52734 40.339 8.52734 41.3169V41.9201C8.52734 42.1024 8.59978 42.2773 8.72871 42.4062C8.85764 42.5352 9.03251 42.6076 9.21484 42.6076H15.5829C15.7653 42.6076 15.9401 42.5352 16.0691 42.4062C16.198 42.2773 16.2704 42.1024 16.2704 41.9201V41.3169ZM14.8941 41.2326H9.90418C9.9259 40.6344 10.1788 40.0679 10.6098 39.6523C11.0407 39.2368 11.616 39.0046 12.2146 39.0046H12.5831C13.1818 39.0046 13.7572 39.2368 14.1882 39.6523C14.6192 40.0678 14.8722 40.6343 14.8941 41.2326ZM35.855 41.3169C35.855 40.339 35.4665 39.4011 34.775 38.7096C34.0835 38.0181 33.1456 37.6296 32.1677 37.6296H31.7997C31.3154 37.6296 30.8359 37.7249 30.3885 37.9102C29.9411 38.0955 29.5345 38.3671 29.1921 38.7095C28.8496 39.0519 28.578 39.4584 28.3926 39.9058C28.2073 40.3532 28.1119 40.8327 28.1119 41.3169V41.9201C28.1119 42.1024 28.1844 42.2773 28.3133 42.4062C28.4422 42.5352 28.6171 42.6076 28.7994 42.6076H35.1675C35.3498 42.6076 35.5247 42.5352 35.6536 42.4062C35.7826 42.2773 35.855 42.1024 35.855 41.9201V41.3169ZM34.4786 41.2326H29.4888C29.5106 40.6343 29.7636 40.0678 30.1946 39.6523C30.6256 39.2368 31.201 39.0046 31.7997 39.0046H32.1677C32.7664 39.0046 33.3418 39.2368 33.7728 39.6523C34.2038 40.0678 34.4568 40.6343 34.4786 41.2326Z" fill="#4D4D4D"/>
<path fill-rule="evenodd" clip-rule="evenodd" d="M3.71484 42.6075H39.534C39.7164 42.6075 39.8913 42.5351 40.0202 42.4062C40.1491 42.2772 40.2215 42.1024 40.2215 41.92C40.2215 41.7377 40.1491 41.5628 40.0202 41.4339C39.8913 41.305 39.7164 41.2325 39.534 41.2325H3.71484C3.53251 41.2325 3.35764 41.305 3.22871 41.4339C3.09978 41.5628 3.02734 41.7377 3.02734 41.92C3.02734 42.1024 3.09978 42.2772 3.22871 42.4062C3.35764 42.5351 3.53251 42.6075 3.71484 42.6075ZM12.8856 35.5203H14.8042C14.9866 35.5203 15.1614 35.4479 15.2904 35.319C15.4193 35.19 15.4917 35.0152 15.4917 34.8328C15.4917 34.6505 15.4193 34.4756 15.2904 34.3467C15.1614 34.2178 14.9866 34.1453 14.8042 34.1453H12.8856C12.7033 34.1453 12.5284 34.2178 12.3995 34.3467C12.2706 34.4756 12.1981 34.6505 12.1981 34.8328C12.1981 35.0152 12.2706 35.19 12.3995 35.319C12.5284 35.4479 12.7033 35.5203 12.8856 35.5203ZM29.4021 35.5203H33.5908C33.7732 35.5203 33.948 35.4479 34.077 35.319C34.2059 35.19 34.2783 35.0152 34.2783 34.8328C34.2783 34.6505 34.2059 34.4756 34.077 34.3467C33.948 34.2178 33.7732 34.1453 33.5908 34.1453H29.4021C29.2198 34.1453 29.0449 34.2178 28.916 34.3467C28.7871 34.4756 28.7146 34.6505 28.7146 34.8328C28.7146 35.0152 28.7871 35.19 28.916 35.319C29.0449 35.4479 29.2198 35.5203 29.4021 35.5203ZM42.1676 8.69959H43.0843C43.2666 8.69959 43.4415 8.62715 43.5704 8.49822C43.6994 8.36929 43.7718 8.19442 43.7718 8.01209C43.7718 7.82975 43.6994 7.65488 43.5704 7.52595C43.4415 7.39702 43.2666 7.32458 43.0843 7.32458H42.1676C41.9853 7.32458 41.8104 7.39702 41.6815 7.52595C41.5526 7.65488 41.4801 7.82975 41.4801 8.01209C41.4801 8.19442 41.5526 8.36929 41.6815 8.49822C41.8104 8.62715 41.9853 8.69959 42.1676 8.69959ZM5.75168 8.69959H38.2503C38.4283 8.69308 38.5968 8.61781 38.7204 8.48959C38.844 8.36136 38.9131 8.1902 38.9131 8.01209C38.9131 7.83397 38.844 7.66281 38.7204 7.53458C38.5968 7.40636 38.4283 7.33109 38.2503 7.32458H5.75168C5.57368 7.33109 5.40515 7.40636 5.28153 7.53458C5.1579 7.66281 5.08883 7.83397 5.08883 8.01209C5.08883 8.1902 5.1579 8.36136 5.28153 8.48959C5.40515 8.61781 5.57368 8.69308 5.75168 8.69959Z" fill="#4D4D4D"/>
</g>
<defs>
<clipPath id="clip0_2089_6">
<rect width="44" height="44" fill="white"/>
</clipPath>
</defs>
</svg>
