<svg width="41" height="41" viewBox="0 0 41 41" fill="none" xmlns="http://www.w3.org/2000/svg">
<g clip-path="url(#clip0_2089_15)">
<path d="M35.2301 41C33.7336 41 32.9298 40.4414 32.2841 39.9929C31.7203 39.6009 31.2753 39.2917 30.3144 39.2917C29.3543 39.2917 28.9093 39.6009 28.3455 39.9929C27.7006 40.4414 26.8977 41 25.4021 41C23.9073 41 23.1052 40.4414 22.4603 39.9929C21.8974 39.6009 21.4524 39.2917 20.494 39.2917C19.5339 39.2917 19.0889 39.6009 18.526 39.9929C17.8811 40.4414 17.0782 41 15.5826 41C14.0869 41 13.2849 40.4414 12.64 39.9929C12.0771 39.6009 11.6329 39.2917 10.6737 39.2917C9.71358 39.2917 9.26942 39.6009 8.70652 39.9929C8.06163 40.4414 7.25871 41 5.76392 41C4.26912 41 3.46621 40.4414 2.82131 39.9929C2.25842 39.6009 1.81425 39.2917 0.854167 39.2917C0.382667 39.2917 0 38.909 0 38.4375C0 37.966 0.382667 37.5833 0.854167 37.5833C2.34981 37.5833 3.15188 38.142 3.79677 38.5904C4.35967 38.9825 4.80469 39.2917 5.76392 39.2917C6.724 39.2917 7.16817 38.9825 7.73106 38.5904C8.3751 38.142 9.17802 37.5833 10.6737 37.5833C12.1693 37.5833 12.9714 38.142 13.6163 38.5904C14.1783 38.9825 14.6233 39.2917 15.5826 39.2917C16.5418 39.2917 16.9868 38.9825 17.5497 38.5904C18.1955 38.142 18.9984 37.5833 20.494 37.5833C21.9888 37.5833 22.7909 38.142 23.4358 38.5904C23.9987 38.9825 24.4428 39.2917 25.4021 39.2917C26.3621 39.2917 26.8072 38.9825 27.3709 38.5904C28.015 38.142 28.8179 37.5833 30.3144 37.5833C31.8109 37.5833 32.6138 38.142 33.2595 38.5904C33.8233 38.9825 34.2692 39.2917 35.2301 39.2917C36.191 39.2917 36.6361 38.9825 37.2007 38.5904C37.8464 38.142 38.6493 37.5833 40.1458 37.5833C40.6173 37.5833 41 37.966 41 38.4375C41 38.909 40.6173 39.2917 40.1458 39.2917C39.1849 39.2917 38.7399 39.6009 38.1753 39.9929C37.5304 40.4414 36.7266 41 35.2301 41ZM35.2258 36.7292C33.7328 36.7292 32.9315 36.1714 32.2875 35.723C31.7229 35.3309 31.2779 35.0208 30.3144 35.0208C29.3509 35.0208 28.9059 35.3309 28.3413 35.723C27.6972 36.1714 26.8951 36.7292 25.4029 36.7292C23.9098 36.7292 23.1086 36.1714 22.4646 35.723C21.9 35.3309 21.455 35.0208 20.4915 35.0208C19.5348 35.0208 19.0906 35.33 18.5286 35.7213C17.8828 36.1705 17.0791 36.7292 15.58 36.7292C15.0974 36.7292 14.6686 36.6736 14.2689 36.5592C13.559 36.3636 13.0679 36.0211 12.634 35.7195C12.0736 35.3292 11.6303 35.0208 10.6771 35.0208C9.71187 35.0208 9.26515 35.3309 8.70054 35.7238C8.41781 35.9194 8.09835 36.1424 7.708 36.3243C7.134 36.5993 6.51388 36.7292 5.76562 36.7292C4.26656 36.7292 3.46279 36.1705 2.81704 35.7213C2.255 35.33 1.81083 35.0208 0.854167 35.0208C0.382667 35.0208 0 34.6382 0 34.1667C0 33.6952 0.382667 33.3125 0.854167 33.3125C2.34725 33.3125 3.14846 33.8703 3.7925 34.3187C4.3571 34.7108 4.80298 35.0208 5.76562 35.0208C6.25592 35.0208 6.62919 34.9465 6.97683 34.78C7.24248 34.6552 7.47652 34.493 7.72508 34.3204C8.37169 33.8711 9.17631 33.3125 10.6771 33.3125C12.1667 33.3125 12.9671 33.8694 13.6103 34.3179C13.9784 34.5732 14.2953 34.7945 14.731 34.9149C14.9829 34.9867 15.258 35.0208 15.58 35.0208C16.5426 35.0208 16.9885 34.7108 17.5531 34.3187C18.1972 33.8703 18.9992 33.3125 20.4915 33.3125C21.9905 33.3125 22.7943 33.8711 23.44 34.3204C24.0021 34.7116 24.4463 35.0208 25.4029 35.0208C26.3596 35.0208 26.8037 34.7116 27.3658 34.3213C28.0115 33.872 28.8153 33.3125 30.3144 33.3125C31.8134 33.3125 32.6172 33.8711 33.263 34.3204C33.825 34.7116 34.2692 35.0208 35.2258 35.0208C36.1885 35.0208 36.6344 34.7116 37.199 34.3196C37.8447 33.8703 38.6485 33.3125 40.1458 33.3125C40.6173 33.3125 41 33.6952 41 34.1667C41 34.6382 40.6173 35.0208 40.1458 35.0208C39.1832 35.0208 38.7373 35.33 38.1727 35.7221C37.5278 36.1714 36.7232 36.7292 35.2258 36.7292ZM2.86915 31.3138C2.71198 31.3138 2.5531 31.2702 2.41046 31.1796C2.00644 30.9217 1.58619 30.75 0.854167 30.75C0.382667 30.75 0 30.3673 0 29.8958C0 29.4243 0.382667 29.0417 0.854167 29.0417C2.07819 29.0417 2.8196 29.4149 3.32954 29.7395C3.72673 29.9932 3.84375 30.5219 3.59006 30.9191C3.42692 31.1745 3.15102 31.3138 2.86915 31.3138ZM25.4029 32.4583C23.9098 32.4583 23.1086 31.9006 22.4646 31.4521C21.9 31.0601 21.455 30.75 20.4915 30.75C20.0285 30.8252 19.5792 30.5091 19.5032 30.0428C19.4272 29.5772 19.7347 29.1365 20.2002 29.0613C20.2976 29.0451 20.3941 29.0417 20.4915 29.0417C21.9905 29.0417 22.7943 29.6003 23.44 30.0496C24.0021 30.4408 24.4463 30.75 25.4029 30.75C26.3596 30.75 26.8037 30.4408 27.3658 30.0504C28.0115 29.6011 28.8153 29.0417 30.3144 29.0417C31.0806 29.0417 31.7212 29.1809 32.3302 29.479C32.7539 29.6866 32.929 30.1982 32.7214 30.6219C32.5139 31.0455 32.0039 31.2215 31.5785 31.0131C31.3283 30.8909 30.9593 30.75 30.3144 30.75C29.3509 30.75 28.9059 31.0601 28.3413 31.4521C27.6972 31.9006 26.8951 32.4583 25.4029 32.4583ZM39.325 30.8269C38.9312 30.8269 38.5767 30.5527 38.4905 30.1521C38.3914 29.6908 38.6852 29.2364 39.1465 29.1373C39.4429 29.0741 39.7785 29.0417 40.1458 29.0417C40.6173 29.0417 41 29.4243 41 29.8958C41 30.3673 40.6173 30.75 40.1458 30.75C39.899 30.75 39.6837 30.7696 39.5052 30.8072C39.4446 30.8209 39.3839 30.8269 39.325 30.8269ZM30.75 15.375C27.9236 15.375 25.625 13.0764 25.625 10.25C25.625 7.42356 27.9236 5.125 30.75 5.125C33.5764 5.125 35.875 7.42356 35.875 10.25C35.875 13.0764 33.5764 15.375 30.75 15.375ZM30.75 6.83333C28.8657 6.83333 27.3333 8.36571 27.3333 10.25C27.3333 12.1343 28.8657 13.6667 30.75 13.6667C32.6343 13.6667 34.1667 12.1343 34.1667 10.25C34.1667 8.36571 32.6343 6.83333 30.75 6.83333Z" fill="#4D4D4D"/>
<path d="M35.2261 32.4583C33.7399 32.4583 32.937 31.9022 32.2912 31.4547C32.0529 31.289 31.8274 31.1335 31.5831 31.0148C31.4968 30.9729 31.4182 30.9174 31.3508 30.8499L25.9755 25.4746L20.9419 30.5082C20.7873 30.6628 20.5789 30.7525 20.3602 30.7577C19.4907 30.7807 19.0653 31.0763 18.5272 31.4512C17.8814 31.8997 17.0785 32.4583 15.5803 32.4583C14.0863 32.4583 13.2843 31.8997 12.6402 31.4504C12.0791 31.0592 11.6349 30.75 10.6774 30.75C9.71472 30.75 9.26885 31.06 8.70424 31.4521C8.0602 31.9005 7.25899 32.4583 5.76591 32.4583C4.26941 32.4583 3.46222 31.8997 2.81391 31.4495C2.68408 31.3598 2.55424 31.2693 2.41758 31.1839C2.19635 31.0455 2.05028 30.8149 2.02124 30.5561C1.99135 30.2973 2.08189 30.0393 2.26639 29.8548L15.4812 16.6391L7.75953 8.26659C7.44947 7.9292 7.45972 7.4073 7.78431 7.08357L14.6176 0.25024C14.9516 -0.0837389 15.4915 -0.0837389 15.8254 0.25024L19.2421 3.66691C19.5761 4.00089 19.5761 4.54072 19.2421 4.8747L17.2852 6.83159L39.8933 29.2902C39.9685 29.3645 40.0291 29.4516 40.0718 29.5482C40.1777 29.7865 40.1863 30.0982 40.0667 30.3289C39.9462 30.5603 39.7447 30.7619 39.4884 30.8115C38.9477 30.9165 38.6069 31.1523 38.1747 31.4521C37.529 31.9005 36.7243 32.4583 35.2261 32.4583ZM32.462 29.5456C32.767 29.7062 33.0292 29.8873 33.2632 30.0504C33.8287 30.4416 34.2737 30.75 35.2261 30.75C36.1896 30.75 36.6363 30.4399 37.2018 30.0478C37.3949 29.9146 37.5964 29.7737 37.8245 29.6413L15.4735 7.43891C15.3121 7.27832 15.2215 7.06137 15.2215 6.83416C15.2215 6.60695 15.3112 6.38914 15.4718 6.22941L17.4304 4.2708L15.2215 2.06193L9.57208 7.71139L17.2929 16.0856C17.603 16.423 17.5927 16.9441 17.269 17.2687L4.21047 30.3272C4.61791 30.5774 5.04926 30.75 5.76591 30.75C6.72258 30.75 7.16674 30.4408 7.72878 30.0496C8.37453 29.6003 9.17831 29.0416 10.6774 29.0416C12.1713 29.0416 12.9734 29.6003 13.6174 30.0496C14.1795 30.4408 14.6228 30.75 15.5803 30.75C16.5421 30.75 16.988 30.4408 17.5517 30.0487C18.1137 29.6575 18.8005 29.18 19.963 29.0715L25.3716 23.6629C25.7056 23.329 26.2454 23.329 26.5794 23.6629L32.462 29.5456Z" fill="#4D4D4D"/>
</g>
<defs>
<clipPath id="clip0_2089_15">
<rect width="41" height="41" fill="white"/>
</clipPath>
</defs>
</svg>
